<svg width="111" height="25" viewBox="0 0 111 25" fill="none" xmlns="http://www.w3.org/2000/svg">
<path d="M5.12628 14.3269C5.12628 12.0192 5.09444 10.0641 5.03076 8.46154C4.16046 8.56838 3.47058 8.88889 2.96114 9.42308C2.47292 9.9359 2.22882 10.5021 2.22882 11.1218C2.22882 11.7201 2.47292 12.3291 2.96114 12.9487C3.47058 13.5684 4.1923 14.0278 5.12628 14.3269ZM7.32325 16.891C7.42939 20.5662 7.48245 22.6603 7.48245 23.1731C7.48245 23.6645 7.35509 24.0705 7.10037 24.391C6.84565 24.7115 6.59093 24.8718 6.33621 24.8718C6.10271 24.8718 5.89044 24.8184 5.6994 24.7115C5.1475 24.4338 4.87155 23.9316 4.87155 23.2051L5.09444 16.5064C3.4812 16.1645 2.2182 15.4808 1.30545 14.4551C0.43515 13.4081 0 12.297 0 11.1218C0 9.94658 0.445763 8.91026 1.33729 8.01282C2.25004 7.09402 3.44936 6.52778 4.93524 6.3141L4.77603 2.5C4.81849 1.75214 5.15812 1.23932 5.79492 0.961539C7.11098 0.427351 8.67115 0.160256 10.4754 0.160256C13.1076 0.160256 15.2939 0.929487 17.0345 2.46795C18.7963 3.98504 19.6773 5.76923 19.6773 7.82051C19.6773 9.87179 19.1572 11.5919 18.1171 12.9808C16.1642 15.609 13.0545 16.9231 8.7879 16.9231C8.02374 16.9231 7.53552 16.9124 7.32325 16.891ZM7.25957 8.46154C7.2808 9.01709 7.29141 11.1111 7.29141 14.7436C7.41877 14.765 7.71595 14.7756 8.18294 14.7756C10.7938 14.7756 12.9484 14.2094 14.6465 13.0769C16.3447 11.9444 17.1937 10.2244 17.1937 7.91667C17.1937 6.33547 16.5251 5.02137 15.1878 3.97436C13.8717 2.90598 12.2903 2.37179 10.4436 2.37179C9.14876 2.37179 8.0768 2.51068 7.22773 2.78846C7.22773 3.55769 7.24896 4.73291 7.29141 6.3141C8.60747 6.48504 9.75372 6.96581 10.7302 7.75641C11.7278 8.54701 12.2266 9.34829 12.2266 10.1603C12.2266 10.5021 12.1205 10.7692 11.9082 10.9615C11.7172 11.1538 11.4837 11.25 11.2078 11.25C10.9318 11.25 10.6134 11.0363 10.2526 10.609C9.08508 9.24145 8.08742 8.52564 7.25957 8.46154Z" fill="#13384A"/>
<path d="M29.6534 10.0962C28.2525 10.0962 27.0744 10.6303 26.1192 11.6987C25.1852 12.7457 24.5696 13.9744 24.2724 15.3846C25.4187 15.7265 26.7029 15.8974 28.1251 15.8974C29.5685 15.8974 30.7254 15.6517 31.5957 15.1603C32.466 14.6688 32.9012 13.9957 32.9012 13.141C32.9012 12.2863 32.604 11.5705 32.0096 10.9936C31.4365 10.3953 30.6511 10.0962 29.6534 10.0962ZM28.2843 17.9167C27.1805 17.9167 25.8326 17.7564 24.2406 17.4359C24.368 18.953 24.9199 20.2457 25.8963 21.3141C26.894 22.3825 28.0508 22.9167 29.3669 22.9167C30.6829 22.9167 31.7655 22.5962 32.6146 21.9551C33.4637 21.2927 34.0156 20.9615 34.2703 20.9615C34.5462 20.9615 34.7585 21.047 34.9071 21.2179C35.0769 21.3675 35.1618 21.5598 35.1618 21.7949C35.1618 22.3932 34.5462 23.0769 33.3151 23.8462C32.1051 24.6154 30.7891 25 29.3669 25C27.1593 25 25.3975 24.2201 24.0814 22.6603C22.7866 21.0791 22.0967 19.1987 22.0118 17.0192C20.8868 16.656 20.3243 16.1004 20.3243 15.3526C20.3243 14.8611 20.5047 14.5406 20.8655 14.391C20.9929 14.3483 21.1521 14.3269 21.3431 14.3269C21.5554 14.3269 21.842 14.4231 22.2028 14.6154C22.6911 12.6709 23.572 11.0897 24.8456 9.87179C26.1404 8.63248 27.6475 8.01282 29.3669 8.01282C31.1075 8.01282 32.5085 8.49359 33.5698 9.45513C34.6311 10.4167 35.1618 11.6774 35.1618 13.2372C35.1618 14.7756 34.5038 15.9402 33.1877 16.7308C31.8717 17.5214 30.2372 17.9167 28.2843 17.9167Z" fill="#13384A"/>
<path d="M45.1935 10.5128L42.5507 10.4487L42.487 18.0449C42.487 20.0107 42.5613 21.2927 42.7099 21.891C42.8585 22.4679 43.2831 22.7564 43.9835 22.7564C44.3232 22.7564 44.7265 22.6496 45.1935 22.4359C45.6605 22.2009 45.947 22.0833 46.0532 22.0833C46.4989 22.0833 46.7218 22.3077 46.7218 22.7564C46.7218 23.2051 46.3291 23.6645 45.5437 24.1346C44.7583 24.6047 43.9835 24.8397 43.2194 24.8397C41.3726 24.8397 40.4493 23.4722 40.4493 20.7372L40.4174 10.4487C39.7169 10.5128 39.2287 10.5449 38.9528 10.5449C37.8914 10.5449 37.3608 10.1923 37.3608 9.48718C37.3608 8.78205 37.8914 8.42949 38.9528 8.42949L40.3538 8.49359L40.2901 4.90385C40.2901 3.83547 40.6934 3.30128 41.5 3.30128C42.3066 3.30128 42.7099 3.83547 42.7099 4.90385L42.6144 8.52564L45.1935 8.39744C46.2548 8.39744 46.7855 8.76068 46.7855 9.48718C46.7855 10.1709 46.2548 10.5128 45.1935 10.5128Z" fill="#13384A"/>
<path d="M53.9202 13.0449L54.0157 7.59615C54.0157 4.11325 53.2303 2.37179 51.6595 2.37179C51.2138 2.37179 50.8529 2.51068 50.577 2.78846C50.301 3.04487 50.1736 3.32265 50.1949 3.6218C50.2161 3.89957 50.3116 4.13461 50.4814 4.32692C50.6088 4.41239 50.8317 4.51923 51.1501 4.64744C51.8293 4.92521 52.169 5.30983 52.169 5.80128C52.169 6.54914 51.7657 6.92308 50.959 6.92308C50.1524 6.92308 49.4519 6.60256 48.8576 5.96154C48.2845 5.29915 47.9979 4.50855 47.9979 3.58974C47.9979 2.67094 48.3163 1.84829 48.9531 1.1218C49.5899 0.373932 50.439 0 51.5003 0C53.5381 0 54.8966 0.715812 55.5759 2.14744C56.1702 3.32265 56.4674 5.05342 56.4674 7.33974C56.4462 8.57906 56.4037 10.438 56.34 12.9167C56.34 15.8868 56.6266 18.2479 57.1997 20C57.7728 21.7308 58.5582 22.5962 59.5559 22.5962C60.2564 22.5962 60.8826 21.9872 61.4345 20.7692C62.0076 19.5513 62.7081 17.5107 63.5359 14.6474C64.3638 11.7628 65.0855 9.23077 65.7011 7.05128C66.6563 3.54701 67.1657 1.7094 67.2294 1.53846C67.5266 0.641026 67.9936 0.192307 68.6304 0.192307C69.0337 0.192307 69.3308 0.331196 69.5219 0.608974C69.7342 0.886752 69.8403 1.17521 69.8403 1.47436C69.8403 1.7735 69.5325 2.8953 68.9169 4.83974C68.3226 6.76282 67.4204 9.77564 66.2105 13.8782C65.0218 17.9594 64.1197 20.6303 63.5041 21.891C62.4852 23.9637 61.1055 25 59.3649 25C57.6243 25 56.2764 23.9637 55.3211 21.891C54.3872 19.797 53.9202 16.8483 53.9202 13.0449Z" fill="#13384A"/>
<path d="M74.435 1.28205C75.3053 1.28205 75.7404 1.79487 75.7404 2.82051C75.7404 3.2906 75.5812 3.73932 75.2628 4.16667C74.9657 4.57265 74.6048 4.77564 74.1803 4.77564C73.2887 4.77564 72.843 4.23077 72.843 3.14102C72.843 2.6282 72.9916 2.19017 73.2887 1.82692C73.6071 1.46368 73.9892 1.28205 74.435 1.28205ZM75.4857 9.77564L75.3265 16.5064L75.4857 23.2372C75.4857 24.3056 75.0824 24.8397 74.2758 24.8397C73.4692 24.8397 73.0659 24.3056 73.0659 23.2372L73.2251 16.5064L73.0659 9.77564C73.0659 8.70726 73.4692 8.17308 74.2758 8.17308C75.0824 8.17308 75.4857 8.70726 75.4857 9.77564Z" fill="#13384A"/>
<path d="M93.9095 16.1538C93.9095 18.4829 93.2409 20.5128 91.9036 22.2436C90.5663 23.9744 88.8469 24.8397 86.7455 24.8397C85.1747 24.8397 83.7949 24.2949 82.6062 23.2051C82.6062 24.2949 82.2029 24.8397 81.3963 24.8397C80.4199 24.8397 79.9316 24.1132 79.9316 22.6603C79.9316 21.1859 80.1439 19.0491 80.5685 16.25C80.5685 14.797 80.4729 12.062 80.2819 8.04487C80.0909 4.00641 79.9953 1.82692 79.9953 1.50641C79.9953 1.1859 80.1015 0.876068 80.3137 0.576923C80.5472 0.277778 80.7807 0.128205 81.0142 0.128205C81.2689 0.128205 81.5024 0.181624 81.7147 0.288462C82.2241 0.523504 82.4789 0.940171 82.4789 1.53846C82.4789 1.62393 82.4789 1.69872 82.4789 1.76282V11.891C83.052 10.7799 83.8268 9.88248 84.8032 9.19872C85.7796 8.51496 86.8834 8.17308 88.1146 8.17308C89.3457 8.17308 90.4177 8.60043 91.3305 9.45513C93.0498 11.0363 93.9095 13.2692 93.9095 16.1538ZM82.4152 15.9615L82.5744 20.8974C83.8268 22.1368 85.1535 22.7564 86.5544 22.7564C87.9554 22.7564 89.1547 22.1261 90.1524 20.8654C91.15 19.6047 91.6488 18.0876 91.6488 16.3141C91.6488 14.5192 91.3198 13.0662 90.6618 11.9551C90.0038 10.8226 89.091 10.2564 87.9235 10.2564C86.7561 10.2564 85.6735 10.7799 84.6758 11.8269C83.6994 12.8739 82.9459 14.2521 82.4152 15.9615Z" fill="#13384A"/>
<path d="M105.492 10.0962C104.091 10.0962 102.913 10.6303 101.957 11.6987C101.023 12.7457 100.408 13.9744 100.111 15.3846C101.257 15.7265 102.541 15.8974 103.963 15.8974C105.407 15.8974 106.564 15.6517 107.434 15.1603C108.304 14.6688 108.739 13.9957 108.739 13.141C108.739 12.2863 108.442 11.5705 107.848 10.9936C107.275 10.3953 106.489 10.0962 105.492 10.0962ZM104.123 17.9167C103.019 17.9167 101.671 17.7564 100.079 17.4359C100.206 18.953 100.758 20.2457 101.734 21.3141C102.732 22.3825 103.889 22.9167 105.205 22.9167C106.521 22.9167 107.604 22.5962 108.453 21.9551C109.302 21.2927 109.854 20.9615 110.108 20.9615C110.384 20.9615 110.597 21.047 110.745 21.2179C110.915 21.3675 111 21.5598 111 21.7949C111 22.3932 110.384 23.0769 109.153 23.8462C107.943 24.6154 106.627 25 105.205 25C102.997 25 101.236 24.2201 99.9196 22.6603C98.6248 21.0791 97.9349 19.1987 97.85 17.0192C96.725 16.656 96.1625 16.1004 96.1625 15.3526C96.1625 14.8611 96.3429 14.5406 96.7037 14.391C96.8311 14.3483 96.9903 14.3269 97.1813 14.3269C97.3936 14.3269 97.6802 14.4231 98.041 14.6154C98.5292 12.6709 99.4102 11.0897 100.684 9.87179C101.979 8.63248 103.486 8.01282 105.205 8.01282C106.946 8.01282 108.347 8.49359 109.408 9.45513C110.469 10.4167 111 11.6774 111 13.2372C111 14.7756 110.342 15.9402 109.026 16.7308C107.71 17.5214 106.075 17.9167 104.123 17.9167Z" fill="#13384A"/>
<path d="M5.12628 14.3269C5.12628 12.0192 5.09444 10.0641 5.03076 8.46154C4.16046 8.56838 3.47058 8.88889 2.96114 9.42308C2.47292 9.9359 2.22882 10.5021 2.22882 11.1218C2.22882 11.7201 2.47292 12.3291 2.96114 12.9487C3.47058 13.5684 4.1923 14.0278 5.12628 14.3269ZM7.32325 16.891C7.42939 20.5662 7.48245 22.6603 7.48245 23.1731C7.48245 23.6645 7.35509 24.0705 7.10037 24.391C6.84565 24.7115 6.59093 24.8718 6.33621 24.8718C6.10271 24.8718 5.89044 24.8184 5.6994 24.7115C5.1475 24.4338 4.87155 23.9316 4.87155 23.2051L5.09444 16.5064C3.4812 16.1645 2.2182 15.4808 1.30545 14.4551C0.43515 13.4081 0 12.297 0 11.1218C0 9.94658 0.445763 8.91026 1.33729 8.01282C2.25004 7.09402 3.44936 6.52778 4.93524 6.3141L4.77603 2.5C4.81849 1.75214 5.15812 1.23932 5.79492 0.961539C7.11098 0.427351 8.67115 0.160256 10.4754 0.160256C13.1076 0.160256 15.2939 0.929487 17.0345 2.46795C18.7963 3.98504 19.6773 5.76923 19.6773 7.82051C19.6773 9.87179 19.1572 11.5919 18.1171 12.9808C16.1642 15.609 13.0545 16.9231 8.7879 16.9231C8.02374 16.9231 7.53552 16.9124 7.32325 16.891ZM7.25957 8.46154C7.2808 9.01709 7.29141 11.1111 7.29141 14.7436C7.41877 14.765 7.71595 14.7756 8.18294 14.7756C10.7938 14.7756 12.9484 14.2094 14.6465 13.0769C16.3447 11.9444 17.1937 10.2244 17.1937 7.91667C17.1937 6.33547 16.5251 5.02137 15.1878 3.97436C13.8717 2.90598 12.2903 2.37179 10.4436 2.37179C9.14876 2.37179 8.0768 2.51068 7.22773 2.78846C7.22773 3.55769 7.24896 4.73291 7.29141 6.3141C8.60747 6.48504 9.75372 6.96581 10.7302 7.75641C11.7278 8.54701 12.2266 9.34829 12.2266 10.1603C12.2266 10.5021 12.1205 10.7692 11.9082 10.9615C11.7172 11.1538 11.4837 11.25 11.2078 11.25C10.9318 11.25 10.6134 11.0363 10.2526 10.609C9.08508 9.24145 8.08742 8.52564 7.25957 8.46154Z" stroke="#13384A"/>
<path d="M29.6534 10.0962C28.2525 10.0962 27.0744 10.6303 26.1192 11.6987C25.1852 12.7457 24.5696 13.9744 24.2724 15.3846C25.4187 15.7265 26.7029 15.8974 28.1251 15.8974C29.5685 15.8974 30.7254 15.6517 31.5957 15.1603C32.466 14.6688 32.9012 13.9957 32.9012 13.141C32.9012 12.2863 32.604 11.5705 32.0096 10.9936C31.4365 10.3953 30.6511 10.0962 29.6534 10.0962ZM28.2843 17.9167C27.1805 17.9167 25.8326 17.7564 24.2406 17.4359C24.368 18.953 24.9199 20.2457 25.8963 21.3141C26.894 22.3825 28.0508 22.9167 29.3669 22.9167C30.6829 22.9167 31.7655 22.5962 32.6146 21.9551C33.4637 21.2927 34.0156 20.9615 34.2703 20.9615C34.5462 20.9615 34.7585 21.047 34.9071 21.2179C35.0769 21.3675 35.1618 21.5598 35.1618 21.7949C35.1618 22.3932 34.5462 23.0769 33.3151 23.8462C32.1051 24.6154 30.7891 25 29.3669 25C27.1593 25 25.3975 24.2201 24.0814 22.6603C22.7866 21.0791 22.0967 19.1987 22.0118 17.0192C20.8868 16.656 20.3243 16.1004 20.3243 15.3526C20.3243 14.8611 20.5047 14.5406 20.8655 14.391C20.9929 14.3483 21.1521 14.3269 21.3431 14.3269C21.5554 14.3269 21.842 14.4231 22.2028 14.6154C22.6911 12.6709 23.572 11.0897 24.8456 9.87179C26.1404 8.63248 27.6475 8.01282 29.3669 8.01282C31.1075 8.01282 32.5085 8.49359 33.5698 9.45513C34.6311 10.4167 35.1618 11.6774 35.1618 13.2372C35.1618 14.7756 34.5038 15.9402 33.1877 16.7308C31.8717 17.5214 30.2372 17.9167 28.2843 17.9167Z" stroke="#13384A"/>
<path d="M45.1935 10.5128L42.5507 10.4487L42.487 18.0449C42.487 20.0107 42.5613 21.2927 42.7099 21.891C42.8585 22.4679 43.2831 22.7564 43.9835 22.7564C44.3232 22.7564 44.7265 22.6496 45.1935 22.4359C45.6605 22.2009 45.947 22.0833 46.0532 22.0833C46.4989 22.0833 46.7218 22.3077 46.7218 22.7564C46.7218 23.2051 46.3291 23.6645 45.5437 24.1346C44.7583 24.6047 43.9835 24.8397 43.2194 24.8397C41.3726 24.8397 40.4493 23.4722 40.4493 20.7372L40.4174 10.4487C39.7169 10.5128 39.2287 10.5449 38.9528 10.5449C37.8914 10.5449 37.3608 10.1923 37.3608 9.48718C37.3608 8.78205 37.8914 8.42949 38.9528 8.42949L40.3538 8.49359L40.2901 4.90385C40.2901 3.83547 40.6934 3.30128 41.5 3.30128C42.3066 3.30128 42.7099 3.83547 42.7099 4.90385L42.6144 8.52564L45.1935 8.39744C46.2548 8.39744 46.7855 8.76068 46.7855 9.48718C46.7855 10.1709 46.2548 10.5128 45.1935 10.5128Z" stroke="#13384A"/>
<path d="M53.9202 13.0449L54.0157 7.59615C54.0157 4.11325 53.2303 2.37179 51.6595 2.37179C51.2138 2.37179 50.8529 2.51068 50.577 2.78846C50.301 3.04487 50.1736 3.32265 50.1949 3.6218C50.2161 3.89957 50.3116 4.13461 50.4814 4.32692C50.6088 4.41239 50.8317 4.51923 51.1501 4.64744C51.8293 4.92521 52.169 5.30983 52.169 5.80128C52.169 6.54914 51.7657 6.92308 50.959 6.92308C50.1524 6.92308 49.4519 6.60256 48.8576 5.96154C48.2845 5.29915 47.9979 4.50855 47.9979 3.58974C47.9979 2.67094 48.3163 1.84829 48.9531 1.1218C49.5899 0.373932 50.439 0 51.5003 0C53.5381 0 54.8966 0.715812 55.5759 2.14744C56.1702 3.32265 56.4674 5.05342 56.4674 7.33974C56.4462 8.57906 56.4037 10.438 56.34 12.9167C56.34 15.8868 56.6266 18.2479 57.1997 20C57.7728 21.7308 58.5582 22.5962 59.5559 22.5962C60.2564 22.5962 60.8826 21.9872 61.4345 20.7692C62.0076 19.5513 62.7081 17.5107 63.5359 14.6474C64.3638 11.7628 65.0855 9.23077 65.7011 7.05128C66.6563 3.54701 67.1657 1.7094 67.2294 1.53846C67.5266 0.641026 67.9936 0.192307 68.6304 0.192307C69.0337 0.192307 69.3308 0.331196 69.5219 0.608974C69.7342 0.886752 69.8403 1.17521 69.8403 1.47436C69.8403 1.7735 69.5325 2.8953 68.9169 4.83974C68.3226 6.76282 67.4204 9.77564 66.2105 13.8782C65.0218 17.9594 64.1197 20.6303 63.5041 21.891C62.4852 23.9637 61.1055 25 59.3649 25C57.6243 25 56.2764 23.9637 55.3211 21.891C54.3872 19.797 53.9202 16.8483 53.9202 13.0449Z" stroke="#13384A"/>
<path d="M74.435 1.28205C75.3053 1.28205 75.7404 1.79487 75.7404 2.82051C75.7404 3.2906 75.5812 3.73932 75.2628 4.16667C74.9657 4.57265 74.6048 4.77564 74.1803 4.77564C73.2887 4.77564 72.843 4.23077 72.843 3.14102C72.843 2.6282 72.9916 2.19017 73.2887 1.82692C73.6071 1.46368 73.9892 1.28205 74.435 1.28205ZM75.4857 9.77564L75.3265 16.5064L75.4857 23.2372C75.4857 24.3056 75.0824 24.8397 74.2758 24.8397C73.4692 24.8397 73.0659 24.3056 73.0659 23.2372L73.2251 16.5064L73.0659 9.77564C73.0659 8.70726 73.4692 8.17308 74.2758 8.17308C75.0824 8.17308 75.4857 8.70726 75.4857 9.77564Z" stroke="#13384A"/>
<path d="M93.9095 16.1538C93.9095 18.4829 93.2409 20.5128 91.9036 22.2436C90.5663 23.9744 88.8469 24.8397 86.7455 24.8397C85.1747 24.8397 83.7949 24.2949 82.6062 23.2051C82.6062 24.2949 82.2029 24.8397 81.3963 24.8397C80.4199 24.8397 79.9316 24.1132 79.9316 22.6603C79.9316 21.1859 80.1439 19.0491 80.5685 16.25C80.5685 14.797 80.4729 12.062 80.2819 8.04487C80.0909 4.00641 79.9953 1.82692 79.9953 1.50641C79.9953 1.1859 80.1015 0.876068 80.3137 0.576923C80.5472 0.277778 80.7807 0.128205 81.0142 0.128205C81.2689 0.128205 81.5024 0.181624 81.7147 0.288462C82.2241 0.523504 82.4789 0.940171 82.4789 1.53846C82.4789 1.62393 82.4789 1.69872 82.4789 1.76282V11.891C83.052 10.7799 83.8268 9.88248 84.8032 9.19872C85.7796 8.51496 86.8834 8.17308 88.1146 8.17308C89.3457 8.17308 90.4177 8.60043 91.3305 9.45513C93.0498 11.0363 93.9095 13.2692 93.9095 16.1538ZM82.4152 15.9615L82.5744 20.8974C83.8268 22.1368 85.1535 22.7564 86.5544 22.7564C87.9554 22.7564 89.1547 22.1261 90.1524 20.8654C91.15 19.6047 91.6488 18.0876 91.6488 16.3141C91.6488 14.5192 91.3198 13.0662 90.6618 11.9551C90.0038 10.8226 89.091 10.2564 87.9235 10.2564C86.7561 10.2564 85.6735 10.7799 84.6758 11.8269C83.6994 12.8739 82.9459 14.2521 82.4152 15.9615Z" stroke="#13384A"/>
<path d="M105.492 10.0962C104.091 10.0962 102.913 10.6303 101.957 11.6987C101.023 12.7457 100.408 13.9744 100.111 15.3846C101.257 15.7265 102.541 15.8974 103.963 15.8974C105.407 15.8974 106.564 15.6517 107.434 15.1603C108.304 14.6688 108.739 13.9957 108.739 13.141C108.739 12.2863 108.442 11.5705 107.848 10.9936C107.275 10.3953 106.489 10.0962 105.492 10.0962ZM104.123 17.9167C103.019 17.9167 101.671 17.7564 100.079 17.4359C100.206 18.953 100.758 20.2457 101.734 21.3141C102.732 22.3825 103.889 22.9167 105.205 22.9167C106.521 22.9167 107.604 22.5962 108.453 21.9551C109.302 21.2927 109.854 20.9615 110.108 20.9615C110.384 20.9615 110.597 21.047 110.745 21.2179C110.915 21.3675 111 21.5598 111 21.7949C111 22.3932 110.384 23.0769 109.153 23.8462C107.943 24.6154 106.627 25 105.205 25C102.997 25 101.236 24.2201 99.9196 22.6603C98.6248 21.0791 97.9349 19.1987 97.85 17.0192C96.725 16.656 96.1625 16.1004 96.1625 15.3526C96.1625 14.8611 96.3429 14.5406 96.7037 14.391C96.8311 14.3483 96.9903 14.3269 97.1813 14.3269C97.3936 14.3269 97.6802 14.4231 98.041 14.6154C98.5292 12.6709 99.4102 11.0897 100.684 9.87179C101.979 8.63248 103.486 8.01282 105.205 8.01282C106.946 8.01282 108.347 8.49359 109.408 9.45513C110.469 10.4167 111 11.6774 111 13.2372C111 14.7756 110.342 15.9402 109.026 16.7308C107.71 17.5214 106.075 17.9167 104.123 17.9167Z" stroke="#13384A"/>
</svg>
