<svg width="53" height="55" viewBox="0 0 53 55" fill="none" xmlns="http://www.w3.org/2000/svg">
<path d="M39.9444 2.88462C39.9444 4.47774 38.6359 5.76923 37.0217 5.76923C35.4076 5.76923 34.099 4.47774 34.099 2.88462C34.099 1.29149 35.4076 0 37.0217 0C38.6359 0 39.9444 1.29149 39.9444 2.88462Z" fill="#13384A"/>
<path fill-rule="evenodd" clip-rule="evenodd" d="M9.54842 11.9231C9.54842 12.962 9.92784 13.9135 10.5574 14.6499C8.44962 14.9162 6.82057 16.6934 6.82057 18.8462C6.82057 20.1837 7.4495 21.3764 8.43141 22.1516C9.38047 18.3901 11.2362 16.2048 12.2281 15.507C12.3064 15.4519 12.3902 15.4099 12.4767 15.3805C12.4614 15.3916 12.4463 15.4033 12.4315 15.4155C11.4885 16.192 9.78625 18.5419 9.14105 22.4201C7.99069 28.0218 7.00538 30.7789 6.24045 31.9599C6.01924 32.3014 5.86786 32.4319 5.79769 32.4795C5.75734 32.4514 5.68856 32.3937 5.59049 32.2783L5.58856 32.276L5.5866 32.2738C2.16282 28.2967 1.66697 25.6385 2.06801 24.0194C2.46905 22.4003 3.86463 21.4377 5.12237 21.0678C5.63802 20.9162 5.93148 20.3807 5.77784 19.8717C5.6242 19.3628 5.08163 19.0732 4.56598 19.2248C2.90409 19.7135 0.796118 21.0562 0.175291 23.5627C-0.445425 26.0687 0.518078 29.3554 4.09981 33.5167C4.4538 33.9325 5.06329 34.4749 5.91445 34.4193C6.76359 34.3638 7.39835 33.7426 7.88212 32.9957C8.65143 31.808 9.45293 29.661 10.313 26.1193C11.142 26.858 12.2405 27.3077 13.4453 27.3077C15.1836 27.3077 16.7004 26.3716 17.5063 24.9823C17.6449 24.994 17.7851 25 17.9268 25C19.2359 25 20.4244 24.4903 21.2996 23.6611C22.176 24.9335 23.6546 25.7692 25.3309 25.7692C27.6997 25.7692 29.6735 24.1005 30.1115 21.8892C30.9624 23.2918 32.517 24.2308 34.2939 24.2308C34.5366 24.2308 34.7752 24.2132 35.0085 24.1794C35.4079 25.5421 36.6814 26.5385 38.1908 26.5385C38.7543 26.5385 39.285 26.3996 39.7496 26.1546C40.2141 26.3996 40.7448 26.5385 41.3083 26.5385C41.8109 26.5385 42.2874 26.428 42.7141 26.2303C43.5639 29.706 44.3566 31.8204 45.1179 32.9957C45.6017 33.7426 46.2364 34.3638 47.0855 34.4193C47.9367 34.4749 48.5462 33.9325 48.9002 33.5168C52.4819 29.3554 53.4454 26.0687 52.8247 23.5627C52.2039 21.0562 50.0959 19.7135 48.434 19.2248C47.9184 19.0732 47.3758 19.3628 47.2222 19.8717C47.0685 20.3807 47.362 20.9162 47.8776 21.0678C49.1354 21.4377 50.5309 22.4003 50.932 24.0194C51.333 25.6385 50.8372 28.2967 47.4134 32.2738L47.4114 32.276L47.4095 32.2783C47.3114 32.3937 47.2427 32.4514 47.2023 32.4795C47.1321 32.4319 46.9808 32.3014 46.7595 31.9599C45.9946 30.7789 45.0093 28.0218 43.8589 22.42C43.2292 18.6349 41.5925 16.3055 40.6376 15.4741C40.7263 15.5028 40.8124 15.5448 40.8929 15.6004C41.8687 16.2751 43.6829 18.366 44.6793 21.9697C45.8195 21.2094 46.5692 19.9219 46.5692 18.4615C46.5692 16.1249 44.65 14.2308 42.2826 14.2308C42.0159 14.2308 41.755 14.2548 41.5018 14.3008C41.4359 11.2772 38.9319 8.84615 35.8526 8.84615C34.2412 8.84615 32.7873 9.5119 31.758 10.5799C31.6566 7.26883 28.9052 4.61538 25.5258 4.61538C23.3068 4.61538 21.3585 5.75946 20.2535 7.48257C19.6256 7.12662 18.8977 6.92308 18.1216 6.92308C17.0501 6.92308 16.0704 7.31114 15.3189 7.95264C14.8565 7.78426 14.3566 7.69231 13.835 7.69231C11.4676 7.69231 9.54842 9.58649 9.54842 11.9231ZM29.5202 18.4615H29.4925L29.5042 18.4805L29.5133 18.4955L29.5171 18.4765L29.5202 18.4615Z" fill="#13384A"/>
<path d="M14.6144 5.76923C15.2601 5.76923 15.7835 5.25264 15.7835 4.61538C15.7835 3.97813 15.2601 3.46154 14.6144 3.46154C13.9688 3.46154 13.4453 3.97813 13.4453 4.61538C13.4453 5.25264 13.9688 5.76923 14.6144 5.76923Z" fill="#13384A"/>
<path d="M42.6722 6.73077C42.6722 7.47423 42.0616 8.07692 41.3083 8.07692C40.555 8.07692 39.9444 7.47423 39.9444 6.73077C39.9444 5.98731 40.555 5.38462 41.3083 5.38462C42.0616 5.38462 42.6722 5.98731 42.6722 6.73077Z" fill="#13384A"/>
<path fill-rule="evenodd" clip-rule="evenodd" d="M30.8549 43.0443C29.874 42.5962 28.8332 41.9964 27.6968 41.2371L31.3102 37.3765C31.6852 36.9758 31.5243 36.3462 30.9884 36.2126C30.0243 35.9723 28.4995 35.6869 26.6948 35.6869C24.7906 35.6869 23.2912 35.9683 22.3605 36.2076C21.8355 36.3426 21.6861 36.9562 22.0542 37.3495L25.8433 41.3979C24.8398 42.0608 23.9115 42.5995 23.0352 43.0198L23.0373 43.0255L22.6371 43.2041C20.8786 43.9886 19.3268 44.2802 17.7805 44.1289C16.2288 43.9771 14.6486 43.3761 12.8392 42.3202C12.3485 42.0339 11.7998 42.1276 11.4491 42.4323C11.0895 42.7446 10.9425 43.2793 11.2498 43.7844C13.9266 48.185 18.0001 50.9774 22.4222 52.1119C23.1728 53.8112 24.89 55 26.8894 55C28.8621 55 30.5601 53.8427 31.326 52.1798C35.827 51.0891 39.9686 48.2534 42.6483 43.6379C42.9398 43.1358 42.7911 42.6094 42.4384 42.2994C42.093 41.9959 41.5528 41.8966 41.0643 42.1716C39.1783 43.2335 37.55 43.8453 35.9755 44.0144C34.4076 44.1829 32.8628 43.9155 31.1375 43.17L30.8538 43.0474L30.8549 43.0443ZM23.1874 44.7839C23.9499 44.3855 24.819 43.8823 25.5126 43.4669C25.774 43.3104 26.1101 43.4953 26.1101 43.7971V47.4005C26.1101 47.8254 26.4591 48.1698 26.8895 48.1698C27.32 48.1698 27.6689 47.8254 27.6689 47.4005V43.7621C27.6689 43.4705 27.9852 43.2847 28.2473 43.4195C29.0138 43.8137 29.7578 44.1601 30.5765 44.4951C30.5815 44.4972 30.5865 44.4992 30.5915 44.5011V50.3846C30.5915 52.2964 29.0213 53.8462 27.0843 53.8462H26.6946C24.7576 53.8462 23.1874 52.2964 23.1874 50.3846V44.7839Z" fill="#13384A"/>
<path d="M18.5111 38.4615C18.5111 38.8864 18.1622 39.2308 17.7317 39.2308C17.3013 39.2308 16.9524 38.8864 16.9524 38.4615C16.9524 38.0367 17.3013 37.6923 17.7317 37.6923C18.1622 37.6923 18.5111 38.0367 18.5111 38.4615Z" fill="#13384A"/>
<path d="M36.437 38.4615C36.437 38.8864 36.088 39.2308 35.6576 39.2308C35.2271 39.2308 34.8782 38.8864 34.8782 38.4615C34.8782 38.0367 35.2271 37.6923 35.6576 37.6923C36.088 37.6923 36.437 38.0367 36.437 38.4615Z" fill="#13384A"/>
<path d="M34.4885 40.7692C34.4885 41.1941 34.1396 41.5385 33.7091 41.5385C33.2787 41.5385 32.9297 41.1941 32.9297 40.7692C32.9297 40.3444 33.2787 40 33.7091 40C34.1396 40 34.4885 40.3444 34.4885 40.7692Z" fill="#13384A"/>
<path d="M37.606 41.5385C38.0365 41.5385 38.3854 41.1941 38.3854 40.7692C38.3854 40.3444 38.0365 40 37.606 40C37.1756 40 36.8267 40.3444 36.8267 40.7692C36.8267 41.1941 37.1756 41.5385 37.606 41.5385Z" fill="#13384A"/>
<path d="M15.7833 41.5385C16.2137 41.5385 16.5627 41.1941 16.5627 40.7692C16.5627 40.3444 16.2137 40 15.7833 40C15.3528 40 15.0039 40.3444 15.0039 40.7692C15.0039 41.1941 15.3528 41.5385 15.7833 41.5385Z" fill="#13384A"/>
<path d="M20.4596 40.7692C20.4596 41.1941 20.1107 41.5385 19.6802 41.5385C19.2498 41.5385 18.9008 41.1941 18.9008 40.7692C18.9008 40.3444 19.2498 40 19.6802 40C20.1107 40 20.4596 40.3444 20.4596 40.7692Z" fill="#13384A"/>
<path d="M14.1418 33.8877C14.7887 32.2816 15.644 31.913 16.1488 31.9233C16.6913 31.9344 17.5654 32.3857 18.2125 33.908C18.4623 34.4956 19.1475 34.7721 19.7428 34.5255C20.3382 34.279 20.6184 33.6027 20.3685 33.0151C19.5311 31.0453 18.0299 29.6535 16.1972 29.6161C14.3267 29.5779 12.8067 30.9554 11.969 33.0353C11.7306 33.6275 12.0236 34.2984 12.6236 34.5338C13.2236 34.7692 13.9033 34.4799 14.1418 33.8877Z" fill="#13384A"/>
<path d="M34.7955 33.8877C35.4424 32.2816 36.2977 31.913 36.8025 31.9233C37.345 31.9344 38.219 32.3857 38.8662 33.908C39.116 34.4956 39.8011 34.7721 40.3965 34.5255C40.9919 34.279 41.272 33.6027 41.0222 33.0151C40.1848 31.0453 38.6836 29.6535 36.8508 29.6161C34.9804 29.5779 33.4604 30.9554 32.6227 33.0353C32.3842 33.6275 32.6773 34.2984 33.2773 34.5338C33.8773 34.7692 34.557 34.4799 34.7955 33.8877Z" fill="#13384A"/>
</svg>
